Coordinates
version=1
nRows=31
nColumns=33
inDegrees=yes

Units are S.I. units (second, meters, Newtons, ...)
Angles are in degrees.

endheader
time	ground_thorax_rot_x	ground_thorax_rot_y	ground_thorax_rot_z	ground_thorax_tx	ground_thorax_ty	ground_thorax_tz	clav_prot_r	clav_elev_r	scapula_abduction_r	scapula_elevation_r	scapula_upward_rot_r	scapula_winging_r	shoulder_elv_r	plane_of_elev_r	axial_rot_r	elbow_flexion_r	pro_sup_r	wrist_flex_r	wrist_dev_r	clav_prot_l	clav_elev_l	scapula_abduction_l	scapula_elevation_l	scapula_upward_rot_l	scapula_winging_l	shoulder_elv_l	plane_of_elev_l	axial_rot_l	elbow_flexion_l	pro_sup_l	wrist_flex_l	wrist_dev_l	
9.9900	-40.028253	-3.441254	4.683964	-52.108178	813.069903	6.970058	-5.446847	-45.000000	45.000000	-45.000000	27.361131	-2989.044209	-658.502408	20.311510	-180.000000	2164.477822	-87.718100	17.670943	10.316737	17.341916	42.462727	-45.000000	-43.632580	-30.695504	2957.139848	-3699.319479	135.369246	-179.999203	368.247846	31.561305	10.367084	-21.442364	
10.0000	-39.796216	-3.754316	4.831600	-50.210937	810.581505	7.259630	-5.119947	-45.000000	45.000000	-45.000000	26.322436	-2988.668646	-658.737483	20.215391	-180.000000	2164.418630	-87.171796	17.590751	10.144716	17.316405	42.131796	-44.999999	-43.045439	-30.702239	2957.121370	-3699.425539	135.331696	-179.998572	368.083786	32.681545	10.143477	-21.131682	
10.0100	-39.575714	-4.037948	4.946195	-48.455798	808.192551	7.521927	-4.836534	-45.000000	45.000000	-45.000000	25.379932	-2988.324166	-658.955834	20.115392	-180.000000	2164.362842	-86.655548	17.499356	9.991772	17.322358	41.806619	-44.999999	-42.475536	-30.657016	2957.097781	-3699.531547	135.315874	-179.997443	367.913073	33.736057	9.946960	-20.823495	
10.0200	-39.370362	-4.289018	5.025893	-46.992272	806.015569	7.731056	-4.617195	-45.000000	45.000000	-45.000000	24.567245	-2988.044128	-659.140476	20.036583	-180.000000	2164.315311	-86.147912	17.400859	9.867345	17.240306	41.439219	-44.999997	-41.932007	-30.554817	2957.106721	-3699.629740	135.309119	-179.995417	367.742229	34.736301	9.817006	-20.621653	
10.0300	-39.186029	-4.510953	5.069535	-45.857053	804.063938	7.880041	-4.459284	-45.000000	45.000000	-45.000000	23.900954	-2987.831711	-659.285646	19.969243	-180.000000	2164.282329	-85.700036	17.289346	9.781020	17.135277	41.073657	-44.999995	-41.426938	-30.389649	2957.145847	-3699.736058	135.323096	-179.991799	367.565175	35.595571	9.745644	-20.478881	
10.0400	-39.027575	-4.711560	5.082260	-45.104194	802.361953	7.961241	-4.355855	-45.000000	44.999999	-45.000000	23.375968	-2987.692867	-659.388136	19.914346	-180.000000	2164.266915	-85.354669	17.166788	9.739056	17.015441	40.715529	-44.999991	-40.970954	-30.174598	2957.226084	-3699.854951	135.351575	-179.985286	367.375064	36.242367	9.738120	-20.383482	
10.0500	-38.898363	-4.903731	5.073608	-44.752013	800.901958	7.976042	-4.294750	-45.000000	44.999999	-45.000000	22.987340	-2987.626537	-659.441667	19.867138	-180.000000	2164.282963	-85.156374	17.033817	9.746411	16.911076	40.415781	-44.999985	-40.575819	-29.924883	2957.351645	-3700.005603	135.398279	-179.973712	367.173950	36.609611	9.778674	-20.304719	
10.0600	-38.798989	-5.087902	5.045903	-44.796895	799.659034	7.933287	-4.255117	-45.000000	44.999998	-45.000000	22.693992	-2987.621821	-659.452480	19.827796	-180.000000	2164.323637	-85.143002	16.901707	9.796611	16.833735	40.186009	-44.999972	-40.247481	-29.681611	2957.507349	-3700.170281	135.450312	-179.952719	366.958590	36.650904	9.862485	-20.224239	
10.0700	-38.730793	-5.266021	5.002179	-45.225335	798.603666	7.846868	-4.222876	-45.000000	44.999997	-45.000000	22.468396	-2987.667244	-659.423988	19.792722	-180.000000	2164.389442	-85.330337	16.774979	9.881777	16.782071	40.052072	-44.999950	-39.995717	-29.477007	2957.677019	-3700.343795	135.502827	-179.915839	366.733216	36.361179	9.978553	-20.140294	
10.0800	-38.693364	-5.433116	4.939699	-46.014546	797.704396	7.734005	-4.188331	-45.000000	44.999994	-45.000000	22.274324	-2987.751106	-659.365648	19.760657	-180.000000	2164.466999	-85.719301	16.659235	9.990188	16.748334	39.988449	-44.999911	-39.821027	-29.345147	2957.838722	-3700.498804	135.543923	-179.847759	366.496777	35.766233	10.127341	-20.059758	
10.0900	-38.683040	-5.596260	4.865244	-47.134432	796.930031	7.612757	-4.148062	-45.000000	44.999990	-45.000000	22.096684	-2987.865220	-659.276323	19.729556	-180.000000	2164.560390	-86.290166	16.551892	10.117476	16.736834	39.985846	-44.999841	-39.719049	-29.298117	2957.985840	-3700.638419	135.573898	-179.742090	366.251681	34.923479	10.296095	-19.983439	
10.1000	-38.694621	-5.755009	4.782812	-48.550861	796.252314	7.499407	-4.095042	-45.000000	44.999982	-45.000000	21.905243	-2988.000689	-659.159996	19.701432	-180.000000	2164.661256	-87.009509	16.456134	10.255866	16.743542	40.012197	-44.999715	-39.669557	-29.347842	2958.112258	-3700.737000	135.591391	-179.605268	366.008502	33.907840	10.474845	-19.919477	
10.1100	-38.725181	-5.918235	4.695535	-50.229374	795.647318	7.406082	-4.024328	-45.000000	44.999968	-45.000000	21.675912	-2988.139315	-659.023214	19.670597	-180.000000	2164.766326	-87.836693	16.362548	10.398378	16.770602	40.050277	-44.999490	-39.669536	-29.484194	2958.222203	-3700.812398	135.605851	-179.472893	365.781333	32.801874	10.651085	-19.869856	
10.1200	-38.766314	-6.094973	4.613981	-52.139093	795.096463	7.339221	-3.929573	-45.000000	44.999943	-45.000000	21.394270	-2988.277363	-658.864135	19.641361	-180.000000	2164.876404	-88.730400	16.272890	10.541667	16.814314	40.087765	-44.999087	-39.696600	-29.701145	2958.322993	-3700.862025	135.629520	-179.382436	365.588900	31.683777	10.806082	-19.836300	
10.1300	-38.809123	-6.287251	4.535003	-54.255656	794.586646	7.299127	-3.808722	-45.000000	44.999898	-45.000000	21.041308	-2988.392077	-658.686723	19.610709	-180.000000	2164.983587	-89.651246	16.177136	10.676304	16.871229	40.119878	-44.998364	-39.750238	-29.979612	2958.411509	-3700.910339	135.672812	-179.381858	365.438588	30.621903	10.934484	-19.817130	
10.1400	-38.855987	-6.510101	4.486209	-56.564005	794.109756	7.280496	-3.649476	-45.000000	44.999818	-45.000000	20.589422	-2988.488614	-658.491885	19.571994	-180.000000	2165.084244	-90.578699	16.081692	10.796254	16.947476	40.146567	-44.997069	-39.835985	-30.393819	2958.470378	-3700.927855	135.728927	-179.466570	365.348816	29.659198	11.020960	-19.810831	
10.1500	-38.908017	-6.746050	4.446971	-59.057836	793.661831	7.273732	-3.455975	-45.000000	44.999673	-45.000000	20.039786	-2988.556302	-658.295214	19.523087	-180.000000	2165.163598	-91.471591	15.977072	10.891976	17.039814	40.159341	-44.994752	-39.964572	-30.908727	2958.494411	-3700.933680	135.793417	-179.615341	365.311235	28.835082	11.078055	-19.820214	
10.1600	-38.968080	-7.031641	4.472307	-61.739134	793.241549	7.266635	-3.212868	-45.000000	44.999415	-45.000000	19.378958	-2988.643308	-658.092074	19.481839	-180.000000	2165.240059	-92.290623	15.880317	10.973529	17.168461	40.149683	-44.990591	-40.132486	-31.612206	2958.494194	-3700.901534	135.839002	-179.769659	365.317852	28.174584	11.080034	-19.833496	
10.1700	-39.032078	-7.340847	4.531738	-64.614788	792.849139	7.246256	-2.940851	-45.000000	44.998951	-45.000000	18.651666	-2988.758232	-657.890978	19.460773	-180.000000	2165.309161	-92.960223	15.786741	11.038751	17.322122	40.118237	-44.983168	-40.327778	-32.422786	2958.482780	-3700.853732	135.863740	-179.899138	365.347961	27.711876	11.037129	-19.851309	
10.1800	-39.107085	-7.691747	4.654254	-67.694893	792.485206	7.200516	-2.644124	-45.000000	44.998122	-45.000000	17.875093	-2988.929020	-657.685252	19.456687	-180.000000	2165.380801	-93.415598	15.711598	11.091779	17.502186	40.067575	-44.969789	-40.549445	-33.386165	2958.468749	-3700.771199	135.854935	-179.971622	365.402081	27.457613	10.938400	-19.867378	
10.1900	-39.186581	-8.035164	4.779256	-70.988123	792.150597	7.119479	-2.348668	-45.000000	44.996633	-45.000000	17.096325	-2989.134699	-657.484692	19.472360	-180.000000	2165.438060	-93.570346	15.648573	11.123538	17.683842	40.010740	-44.946050	-40.777971	-34.351094	2958.461032	-3700.690793	135.838015	-179.999464	365.469229	27.413502	10.814882	-19.890538	
10.2000	-39.272787	-8.396009	4.936652	-74.500773	791.846269	6.996043	-2.045788	-45.000000	44.993975	-45.000000	16.297374	-2989.376977	-657.281231	19.498206	-180.000000	2165.484190	-93.386111	15.611952	11.135891	17.867226	39.954378	-44.902893	-41.015001	-35.355061	2958.456879	-3700.601807	135.812994	-179.999756	365.543747	27.544420	10.669192	-19.913077	
10.2100	-39.358629	-8.748276	5.091367	-78.233783	791.573975	6.826176	-1.739606	-45.000000	44.989192	-45.000000	15.467736	-2989.617544	-657.082990	19.526493	-180.000000	2165.498673	-92.841564	15.592093	11.119030	18.033233	39.909472	-44.827355	-41.256069	-36.313213	2958.441995	-3700.526759	135.803697	-180.000000	365.620799	27.798264	10.537669	-19.942052	
10.2200	-39.453232	-9.142286	5.291794	-82.183895	791.336635	6.608574	-1.396803	-45.000000	44.980681	-45.000000	14.513440	-2989.838674	-656.897803	19.539132	-180.000000	2165.474656	-91.957211	15.596355	11.071863	18.195184	39.874769	-44.687111	-41.530734	-37.317807	2958.390281	-3700.442123	135.800946	-180.000000	365.708173	28.097249	10.435455	-19.976024	
10.2300	-39.549358	-9.585888	5.536847	-86.341828	791.138999	6.344101	-0.998316	-45.000000	44.965281	-45.000000	13.395014	-2990.024974	-656.734112	19.547393	-180.000000	2165.408665	-90.760918	15.623904	10.997769	18.327786	39.853567	-44.449663	-41.834802	-38.329544	2958.291905	-3700.352942	135.809208	-180.000000	365.798016	28.379342	10.380576	-20.019054	
10.2400	-39.652311	-10.117781	5.864879	-90.694484	790.987529	6.034953	-0.532594	-45.000000	44.938125	-45.000000	12.088723	-2990.191174	-656.590414	19.551297	-180.000000	2165.316677	-89.323165	15.678159	10.908190	18.430953	39.834196	-44.091688	-42.182104	-39.409196	2958.139397	-3700.236122	135.811772	-180.000000	365.884125	28.607399	10.360116	-20.063688	
10.2500	-39.756274	-10.716432	6.257125	-95.225115	790.890108	5.683967	-0.025080	-45.000000	44.888277	-45.000000	10.650095	-2990.346595	-656.457107	19.560347	-180.000000	2165.214107	-87.736733	15.745366	10.812959	18.485515	39.807191	-43.619588	-42.562889	-40.513001	2957.937423	-3700.101809	135.814185	-180.000000	365.960533	28.780856	10.365630	-20.109449	
10.2600	-39.864171	-11.361394	6.698201	-99.915661	790.855318	5.293977	0.509252	-45.000000	44.802350	-45.000000	9.111712	-2990.483699	-656.326621	19.567242	-180.000000	2165.114604	-86.090988	15.825203	10.718726	18.480704	39.768999	-43.053855	-42.966520	-41.615845	2957.712749	-3699.952349	135.806184	-180.000000	366.021438	28.916499	10.392332	-20.154610	
10.2700	-39.974505	-12.001185	7.151582	-104.746624	790.891762	4.867552	1.020941	-45.000000	44.639037	-45.000000	7.523750	-2990.585851	-656.188285	19.576232	-180.000000	2165.032396	-84.480825	15.903344	10.634402	18.412660	39.717345	-42.437199	-43.372126	-42.639557	2957.488010	-3699.813238	135.806715	-180.000000	366.062112	29.054036	10.432895	-20.201943	
10.2800	-40.091089	-12.566518	7.556704	-109.698582	791.007478	4.406893	1.481518	-45.000000	44.372713	-45.000000	5.978789	-2990.636867	-656.028538	19.579113	-180.000000	2164.977317	-82.997493	15.986694	10.564144	18.273934	39.656930	-41.824548	-43.742712	-43.511916	2957.322710	-3699.698460	135.799122	-180.000000	366.077177	29.248595	10.486286	-20.252308	
10.2900	-40.210859	-13.102347	7.989868	-114.752334	791.209796	3.913999	1.902791	-45.000000	43.823068	-45.000000	4.088331	-2990.496079	-655.895488	19.604333	-180.000000	2164.918337	-81.636186	16.080265	10.497552	18.092562	39.600756	-41.188890	-44.081413	-44.169546	2957.195626	-3699.638676	135.848009	-180.000000	366.061826	29.490335	10.579499	-20.320388	
